<mxfile host="app.diagrams.net" modified="2021-02-14T15:21:40.007Z" agent="5.0 (Macintosh; Intel Mac OS X 10_14_3) AppleWebKit/537.36 (KHTML, like Gecko) Chrome/88.0.4324.146 Safari/537.36" etag="jVKaYTnSOQiNJjCW8-gs" version="14.3.0" type="github">
  <diagram name="Page-1" id="bd83a815-5ea8-2e97-e5ec-87c9f400f2fa">
    <mxGraphModel dx="1892" dy="994" grid="1" gridSize="10" guides="1" tooltips="1" connect="1" arrows="1" fold="1" page="1" pageScale="1.5" pageWidth="1169" pageHeight="826" math="0" shadow="0">
      <root>
        <mxCell id="0" style=";html=1;" />
        <mxCell id="1" style=";html=1;" parent="0" />
        <mxCell id="4hUw0P1e5kC0Aczj4ooU-27" value="" style="shape=table;html=1;whiteSpace=wrap;startSize=0;container=1;collapsible=0;childLayout=tableLayout;fillColor=#d5e8d4;strokeColor=#82b366;labelBackgroundColor=none;shadow=0;rounded=1;sketch=1;fontSize=20;fontStyle=0;dashed=1;fillStyle=auto;labelBorderColor=none;" parent="1" vertex="1">
          <mxGeometry x="790" y="450" width="1360" height="320" as="geometry" />
        </mxCell>
        <mxCell id="4hUw0P1e5kC0Aczj4ooU-28" value="" style="shape=partialRectangle;html=1;whiteSpace=wrap;collapsible=0;dropTarget=0;pointerEvents=0;fillColor=none;top=0;left=0;bottom=0;right=0;points=[[0,0.5],[1,0.5]];portConstraint=eastwest;strokeColor=#788AA3;labelBackgroundColor=none;sketch=1;fontSize=20;fontStyle=0;fillStyle=auto;labelBorderColor=none;" parent="4hUw0P1e5kC0Aczj4ooU-27" vertex="1">
          <mxGeometry width="1360" height="53" as="geometry" />
        </mxCell>
        <mxCell id="4hUw0P1e5kC0Aczj4ooU-29" value="URL1" style="shape=partialRectangle;html=1;whiteSpace=wrap;connectable=0;overflow=hidden;fillColor=none;top=0;left=0;bottom=0;right=0;strokeColor=#788AA3;labelBackgroundColor=none;sketch=1;fontSize=20;fontStyle=0;fillStyle=auto;labelBorderColor=none;" parent="4hUw0P1e5kC0Aczj4ooU-28" vertex="1">
          <mxGeometry width="430" height="53" as="geometry" />
        </mxCell>
        <mxCell id="4hUw0P1e5kC0Aczj4ooU-30" value="URL2" style="shape=partialRectangle;html=1;whiteSpace=wrap;connectable=0;overflow=hidden;fillColor=none;top=0;left=0;bottom=0;right=0;strokeColor=#788AA3;labelBackgroundColor=none;sketch=1;fontSize=20;fontStyle=0;fillStyle=auto;labelBorderColor=none;" parent="4hUw0P1e5kC0Aczj4ooU-28" vertex="1">
          <mxGeometry x="430" width="490" height="53" as="geometry" />
        </mxCell>
        <mxCell id="e5mrfm4xOePhf9OYJ_Ce-5" value="是否同源" style="shape=partialRectangle;html=1;whiteSpace=wrap;connectable=0;overflow=hidden;fillColor=none;top=0;left=0;bottom=0;right=0;strokeColor=#788AA3;labelBackgroundColor=none;sketch=1;fontSize=20;fontStyle=0;fillStyle=auto;labelBorderColor=none;" parent="4hUw0P1e5kC0Aczj4ooU-28" vertex="1">
          <mxGeometry x="920" width="440" height="53" as="geometry" />
        </mxCell>
        <mxCell id="e5mrfm4xOePhf9OYJ_Ce-2" value="" style="shape=partialRectangle;html=1;whiteSpace=wrap;collapsible=0;dropTarget=0;pointerEvents=0;fillColor=none;top=0;left=0;bottom=0;right=0;points=[[0,0.5],[1,0.5]];portConstraint=eastwest;strokeColor=#788AA3;labelBackgroundColor=none;sketch=1;fontSize=20;fontStyle=0;fillStyle=auto;labelBorderColor=none;" parent="4hUw0P1e5kC0Aczj4ooU-27" vertex="1">
          <mxGeometry y="53" width="1360" height="53" as="geometry" />
        </mxCell>
        <mxCell id="e5mrfm4xOePhf9OYJ_Ce-3" value="&lt;span class=&quot;md-link md-pair-s&quot; spellcheck=&quot;false&quot; style=&quot;font-family: &amp;quot;open sans&amp;quot;, &amp;quot;clear sans&amp;quot;, &amp;quot;helvetica neue&amp;quot;, helvetica, arial, sans-serif; box-sizing: border-box; word-break: break-all; font-size: 20px;&quot;&gt;&lt;a href=&quot;http://www.xiaobai.com/index.html&quot; style=&quot;box-sizing: border-box; cursor: pointer; font-size: 20px;&quot;&gt;http://www.xiaobai.com/index.html&lt;/a&gt;&lt;/span&gt;&lt;span class=&quot;md-plain md-expand&quot; style=&quot;font-family: &amp;quot;open sans&amp;quot;, &amp;quot;clear sans&amp;quot;, &amp;quot;helvetica neue&amp;quot;, helvetica, arial, sans-serif; box-sizing: border-box; font-size: 20px;&quot;&gt;&amp;nbsp;&lt;/span&gt;" style="shape=partialRectangle;html=1;whiteSpace=wrap;connectable=0;overflow=hidden;fillColor=none;top=0;left=0;bottom=0;right=0;strokeColor=#788AA3;labelBackgroundColor=none;sketch=1;fontSize=20;fontStyle=0;fillStyle=auto;labelBorderColor=none;" parent="e5mrfm4xOePhf9OYJ_Ce-2" vertex="1">
          <mxGeometry width="430" height="53" as="geometry" />
        </mxCell>
        <mxCell id="e5mrfm4xOePhf9OYJ_Ce-4" value="&lt;span class=&quot;md-plain md-expand&quot; style=&quot;font-family: &amp;quot;open sans&amp;quot;, &amp;quot;clear sans&amp;quot;, &amp;quot;helvetica neue&amp;quot;, helvetica, arial, sans-serif; box-sizing: border-box; font-size: 20px;&quot;&gt;&amp;nbsp;&lt;/span&gt;&lt;span class=&quot;md-link md-pair-s&quot; spellcheck=&quot;false&quot; style=&quot;font-family: &amp;quot;open sans&amp;quot;, &amp;quot;clear sans&amp;quot;, &amp;quot;helvetica neue&amp;quot;, helvetica, arial, sans-serif; box-sizing: border-box; word-break: break-all; font-size: 20px;&quot;&gt;&lt;a href=&quot;http://www.xiaobai.com/server.php&quot; style=&quot;box-sizing: border-box; cursor: pointer; font-size: 20px;&quot;&gt;http://www.xiaobai.com/server.php&lt;/a&gt;&lt;/span&gt;" style="shape=partialRectangle;html=1;whiteSpace=wrap;connectable=0;overflow=hidden;fillColor=none;top=0;left=0;bottom=0;right=0;strokeColor=#788AA3;labelBackgroundColor=none;sketch=1;fontSize=20;fontStyle=0;fillStyle=auto;labelBorderColor=none;" parent="e5mrfm4xOePhf9OYJ_Ce-2" vertex="1">
          <mxGeometry x="430" width="490" height="53" as="geometry" />
        </mxCell>
        <mxCell id="e5mrfm4xOePhf9OYJ_Ce-6" value="同源（主域名，子域名，端口，协议都相同）" style="shape=partialRectangle;html=1;whiteSpace=wrap;connectable=0;overflow=hidden;fillColor=none;top=0;left=0;bottom=0;right=0;strokeColor=#788AA3;labelBackgroundColor=none;sketch=1;fontSize=20;fontStyle=0;fillStyle=auto;labelBorderColor=none;" parent="e5mrfm4xOePhf9OYJ_Ce-2" vertex="1">
          <mxGeometry x="920" width="440" height="53" as="geometry" />
        </mxCell>
        <mxCell id="4hUw0P1e5kC0Aczj4ooU-31" value="" style="shape=partialRectangle;html=1;whiteSpace=wrap;collapsible=0;dropTarget=0;pointerEvents=0;fillColor=none;top=0;left=0;bottom=0;right=0;points=[[0,0.5],[1,0.5]];portConstraint=eastwest;strokeColor=#788AA3;labelBackgroundColor=none;fontSize=20;sketch=1;fontStyle=0;fillStyle=auto;labelBorderColor=none;" parent="4hUw0P1e5kC0Aczj4ooU-27" vertex="1">
          <mxGeometry y="106" width="1360" height="54" as="geometry" />
        </mxCell>
        <mxCell id="4hUw0P1e5kC0Aczj4ooU-32" value="&lt;span class=&quot;md-link md-pair-s&quot; spellcheck=&quot;false&quot; style=&quot;font-family: &amp;quot;open sans&amp;quot;, &amp;quot;clear sans&amp;quot;, &amp;quot;helvetica neue&amp;quot;, helvetica, arial, sans-serif; box-sizing: border-box; word-break: break-all; font-size: 20px;&quot;&gt;&lt;a href=&quot;http://www.xiaobai.com/index.html&quot; style=&quot;box-sizing: border-box; cursor: pointer; font-size: 20px;&quot;&gt;http://www.xiaobai.com/index.html&lt;/a&gt;&lt;/span&gt;&lt;span class=&quot;md-plain&quot; style=&quot;font-family: &amp;quot;open sans&amp;quot;, &amp;quot;clear sans&amp;quot;, &amp;quot;helvetica neue&amp;quot;, helvetica, arial, sans-serif; box-sizing: border-box; font-size: 20px;&quot;&gt;&amp;nbsp;&lt;/span&gt;" style="shape=partialRectangle;html=1;whiteSpace=wrap;connectable=0;overflow=hidden;fillColor=none;top=0;left=0;bottom=0;right=0;strokeColor=#788AA3;labelBackgroundColor=none;fontSize=20;sketch=1;fontStyle=0;fillStyle=auto;labelBorderColor=none;" parent="4hUw0P1e5kC0Aczj4ooU-31" vertex="1">
          <mxGeometry width="430" height="54" as="geometry" />
        </mxCell>
        <mxCell id="4hUw0P1e5kC0Aczj4ooU-33" value="&lt;span class=&quot;md-plain&quot; style=&quot;font-family: &amp;quot;open sans&amp;quot;, &amp;quot;clear sans&amp;quot;, &amp;quot;helvetica neue&amp;quot;, helvetica, arial, sans-serif; box-sizing: border-box; font-size: 20px;&quot;&gt;&amp;nbsp;&lt;/span&gt;&lt;span class=&quot;md-link md-pair-s&quot; spellcheck=&quot;false&quot; style=&quot;font-family: &amp;quot;open sans&amp;quot;, &amp;quot;clear sans&amp;quot;, &amp;quot;helvetica neue&amp;quot;, helvetica, arial, sans-serif; box-sizing: border-box; word-break: break-all; font-size: 20px;&quot;&gt;&lt;a href=&quot;http://www.hello.com/server.php&quot; style=&quot;box-sizing: border-box; cursor: pointer; font-size: 20px;&quot;&gt;http://www.hello.com/server.php&lt;/a&gt;&lt;/span&gt;" style="shape=partialRectangle;html=1;whiteSpace=wrap;connectable=0;overflow=hidden;fillColor=none;top=0;left=0;bottom=0;right=0;strokeColor=#788AA3;labelBackgroundColor=none;fontSize=20;sketch=1;fontStyle=0;fillStyle=auto;labelBorderColor=none;" parent="4hUw0P1e5kC0Aczj4ooU-31" vertex="1">
          <mxGeometry x="430" width="490" height="54" as="geometry" />
        </mxCell>
        <mxCell id="e5mrfm4xOePhf9OYJ_Ce-7" value="&lt;span style=&quot;font-family: &amp;quot;open sans&amp;quot;, &amp;quot;clear sans&amp;quot;, &amp;quot;helvetica neue&amp;quot;, helvetica, arial, sans-serif; font-size: 20px;&quot;&gt;主域名不同:xiaobai/hello，非同源&lt;/span&gt;" style="shape=partialRectangle;html=1;whiteSpace=wrap;connectable=0;overflow=hidden;fillColor=none;top=0;left=0;bottom=0;right=0;strokeColor=#788AA3;labelBackgroundColor=none;sketch=1;fontSize=20;fontStyle=0;fillStyle=auto;labelBorderColor=none;align=center;" parent="4hUw0P1e5kC0Aczj4ooU-31" vertex="1">
          <mxGeometry x="920" width="440" height="54" as="geometry" />
        </mxCell>
        <mxCell id="4hUw0P1e5kC0Aczj4ooU-34" value="" style="shape=partialRectangle;html=1;whiteSpace=wrap;collapsible=0;dropTarget=0;pointerEvents=0;fillColor=none;top=0;left=0;bottom=0;right=0;points=[[0,0.5],[1,0.5]];portConstraint=eastwest;strokeColor=#788AA3;labelBackgroundColor=none;fontSize=20;sketch=1;fontStyle=0;fillStyle=auto;labelBorderColor=none;" parent="4hUw0P1e5kC0Aczj4ooU-27" vertex="1">
          <mxGeometry y="160" width="1360" height="54" as="geometry" />
        </mxCell>
        <mxCell id="4hUw0P1e5kC0Aczj4ooU-35" value="&lt;div style=&quot;font-family: menlo, monaco, &amp;quot;courier new&amp;quot;, monospace; font-size: 20px; line-height: 21px;&quot;&gt;&lt;span class=&quot;md-link md-pair-s&quot; spellcheck=&quot;false&quot; style=&quot;font-family: &amp;quot;open sans&amp;quot;, &amp;quot;clear sans&amp;quot;, &amp;quot;helvetica neue&amp;quot;, helvetica, arial, sans-serif; box-sizing: border-box; word-break: break-all; font-size: 20px;&quot;&gt;&lt;a href=&quot;http://abc.xiaobai.com/index.html&quot; style=&quot;box-sizing: border-box; cursor: pointer; font-size: 20px;&quot;&gt;http://abc.xiaobai.com/index.html&lt;/a&gt;&lt;/span&gt;&lt;span class=&quot;md-plain&quot; style=&quot;font-family: &amp;quot;open sans&amp;quot;, &amp;quot;clear sans&amp;quot;, &amp;quot;helvetica neue&amp;quot;, helvetica, arial, sans-serif; box-sizing: border-box; font-size: 20px;&quot;&gt;&amp;nbsp;&lt;/span&gt;&lt;br style=&quot;font-size: 20px;&quot;&gt;&lt;/div&gt;" style="shape=partialRectangle;html=1;whiteSpace=wrap;connectable=0;overflow=hidden;fillColor=none;top=0;left=0;bottom=0;right=0;strokeColor=#788AA3;labelBackgroundColor=none;fontSize=20;sketch=1;fontStyle=0;fillStyle=auto;labelBorderColor=none;" parent="4hUw0P1e5kC0Aczj4ooU-34" vertex="1">
          <mxGeometry width="430" height="54" as="geometry" />
        </mxCell>
        <mxCell id="4hUw0P1e5kC0Aczj4ooU-36" value="&lt;span class=&quot;md-plain&quot; style=&quot;font-family: &amp;quot;open sans&amp;quot;, &amp;quot;clear sans&amp;quot;, &amp;quot;helvetica neue&amp;quot;, helvetica, arial, sans-serif; box-sizing: border-box; font-size: 20px;&quot;&gt;&amp;nbsp;&lt;/span&gt;&lt;span class=&quot;md-link md-pair-s&quot; spellcheck=&quot;false&quot; style=&quot;font-family: &amp;quot;open sans&amp;quot;, &amp;quot;clear sans&amp;quot;, &amp;quot;helvetica neue&amp;quot;, helvetica, arial, sans-serif; box-sizing: border-box; word-break: break-all; font-size: 20px;&quot;&gt;&lt;a href=&quot;http://def.xiaobai.com/server.php&quot; style=&quot;box-sizing: border-box; cursor: pointer; font-size: 20px;&quot;&gt;http://def.xiaobai.com/server.php&lt;/a&gt;&lt;/span&gt;" style="shape=partialRectangle;html=1;whiteSpace=wrap;connectable=0;overflow=hidden;fillColor=none;top=0;left=0;bottom=0;right=0;strokeColor=#788AA3;labelBackgroundColor=none;fontSize=20;sketch=1;fontStyle=0;fillStyle=auto;labelBorderColor=none;" parent="4hUw0P1e5kC0Aczj4ooU-34" vertex="1">
          <mxGeometry x="430" width="490" height="54" as="geometry" />
        </mxCell>
        <mxCell id="e5mrfm4xOePhf9OYJ_Ce-8" value="&lt;span style=&quot;font-family: &amp;quot;open sans&amp;quot;, &amp;quot;clear sans&amp;quot;, &amp;quot;helvetica neue&amp;quot;, helvetica, arial, sans-serif; font-size: 20px;&quot;&gt;子域名不同:abc/def，非同源&lt;/span&gt;" style="shape=partialRectangle;html=1;whiteSpace=wrap;connectable=0;overflow=hidden;fillColor=none;top=0;left=0;bottom=0;right=0;strokeColor=#788AA3;labelBackgroundColor=none;fontSize=20;sketch=1;fontStyle=0;fillStyle=auto;labelBorderColor=none;" parent="4hUw0P1e5kC0Aczj4ooU-34" vertex="1">
          <mxGeometry x="920" width="440" height="54" as="geometry" />
        </mxCell>
        <mxCell id="tLYgwjl-dfper2AhRyFg-3" value="" style="shape=partialRectangle;html=1;whiteSpace=wrap;collapsible=0;dropTarget=0;pointerEvents=0;fillColor=none;top=0;left=0;bottom=0;right=0;points=[[0,0.5],[1,0.5]];portConstraint=eastwest;strokeColor=#788AA3;labelBackgroundColor=none;fontSize=20;sketch=1;fontStyle=0;fillStyle=auto;labelBorderColor=none;" parent="4hUw0P1e5kC0Aczj4ooU-27" vertex="1">
          <mxGeometry y="214" width="1360" height="53" as="geometry" />
        </mxCell>
        <mxCell id="tLYgwjl-dfper2AhRyFg-4" value="&lt;div style=&quot;font-family: menlo, monaco, &amp;quot;courier new&amp;quot;, monospace; font-size: 20px; line-height: 21px;&quot;&gt;&lt;span class=&quot;md-link md-pair-s&quot; spellcheck=&quot;false&quot; style=&quot;font-family: &amp;quot;open sans&amp;quot;, &amp;quot;clear sans&amp;quot;, &amp;quot;helvetica neue&amp;quot;, helvetica, arial, sans-serif; box-sizing: border-box; word-break: break-all; font-size: 20px;&quot;&gt;&lt;a href=&quot;http://www.xiaobai.com:8080/index.html&quot; style=&quot;box-sizing: border-box; cursor: pointer; font-size: 20px;&quot;&gt;http://www.xiaobai.com:8080/index.html&lt;/a&gt;&lt;/span&gt;&lt;span class=&quot;md-plain&quot; style=&quot;font-family: &amp;quot;open sans&amp;quot;, &amp;quot;clear sans&amp;quot;, &amp;quot;helvetica neue&amp;quot;, helvetica, arial, sans-serif; box-sizing: border-box; font-size: 20px;&quot;&gt;&amp;nbsp;&lt;/span&gt;&lt;br style=&quot;font-size: 20px;&quot;&gt;&lt;/div&gt;" style="shape=partialRectangle;html=1;whiteSpace=wrap;connectable=0;overflow=hidden;fillColor=none;top=0;left=0;bottom=0;right=0;strokeColor=#788AA3;labelBackgroundColor=none;fontSize=20;sketch=1;fontStyle=0;fillStyle=auto;labelBorderColor=none;" parent="tLYgwjl-dfper2AhRyFg-3" vertex="1">
          <mxGeometry width="430" height="53" as="geometry" />
        </mxCell>
        <mxCell id="tLYgwjl-dfper2AhRyFg-5" value="&lt;span class=&quot;md-plain&quot; style=&quot;font-family: &amp;quot;open sans&amp;quot;, &amp;quot;clear sans&amp;quot;, &amp;quot;helvetica neue&amp;quot;, helvetica, arial, sans-serif; box-sizing: border-box; font-size: 20px;&quot;&gt;&amp;nbsp;&lt;/span&gt;&lt;span class=&quot;md-link md-pair-s&quot; spellcheck=&quot;false&quot; style=&quot;font-family: &amp;quot;open sans&amp;quot;, &amp;quot;clear sans&amp;quot;, &amp;quot;helvetica neue&amp;quot;, helvetica, arial, sans-serif; box-sizing: border-box; word-break: break-all; font-size: 20px;&quot;&gt;&lt;a href=&quot;http://www.xiaobai.com:8081/server.php&quot; style=&quot;box-sizing: border-box; cursor: pointer; font-size: 20px;&quot;&gt;http://www.xiaobai.com:8081/server.php&lt;/a&gt;&lt;/span&gt;" style="shape=partialRectangle;html=1;whiteSpace=wrap;connectable=0;overflow=hidden;fillColor=none;top=0;left=0;bottom=0;right=0;strokeColor=#788AA3;labelBackgroundColor=none;fontSize=20;sketch=1;fontStyle=0;fillStyle=auto;labelBorderColor=none;" parent="tLYgwjl-dfper2AhRyFg-3" vertex="1">
          <mxGeometry x="430" width="490" height="53" as="geometry" />
        </mxCell>
        <mxCell id="e5mrfm4xOePhf9OYJ_Ce-9" value="&lt;span style=&quot;font-family: &amp;quot;open sans&amp;quot;, &amp;quot;clear sans&amp;quot;, &amp;quot;helvetica neue&amp;quot;, helvetica, arial, sans-serif; font-size: 20px;&quot;&gt;端口不同:8080/8081，&lt;/span&gt;&lt;span style=&quot;font-family: &amp;quot;open sans&amp;quot;, &amp;quot;clear sans&amp;quot;, &amp;quot;helvetica neue&amp;quot;, helvetica, arial, sans-serif; font-size: 20px;&quot;&gt;非同源&lt;/span&gt;" style="shape=partialRectangle;html=1;whiteSpace=wrap;connectable=0;overflow=hidden;fillColor=none;top=0;left=0;bottom=0;right=0;strokeColor=#788AA3;labelBackgroundColor=none;fontSize=20;sketch=1;fontStyle=0;fillStyle=auto;labelBorderColor=none;" parent="tLYgwjl-dfper2AhRyFg-3" vertex="1">
          <mxGeometry x="920" width="440" height="53" as="geometry" />
        </mxCell>
        <mxCell id="tLYgwjl-dfper2AhRyFg-19" value="" style="shape=partialRectangle;html=1;whiteSpace=wrap;collapsible=0;dropTarget=0;pointerEvents=0;fillColor=none;top=0;left=0;bottom=0;right=0;points=[[0,0.5],[1,0.5]];portConstraint=eastwest;strokeColor=#788AA3;labelBackgroundColor=none;fontSize=20;sketch=1;fontStyle=0;fillStyle=auto;labelBorderColor=none;" parent="4hUw0P1e5kC0Aczj4ooU-27" vertex="1">
          <mxGeometry y="267" width="1360" height="53" as="geometry" />
        </mxCell>
        <mxCell id="tLYgwjl-dfper2AhRyFg-20" value="&lt;div style=&quot;font-family: menlo, monaco, &amp;quot;courier new&amp;quot;, monospace; font-size: 20px; line-height: 21px;&quot;&gt;&lt;span class=&quot;md-link md-pair-s&quot; spellcheck=&quot;false&quot; style=&quot;font-family: &amp;quot;open sans&amp;quot;, &amp;quot;clear sans&amp;quot;, &amp;quot;helvetica neue&amp;quot;, helvetica, arial, sans-serif; box-sizing: border-box; word-break: break-all; font-size: 20px;&quot;&gt;&lt;a href=&quot;http://www.xiaobai.com/index.html&quot; style=&quot;box-sizing: border-box; cursor: pointer; font-size: 20px;&quot;&gt;http://www.xiaobai.com/index.html&lt;/a&gt;&lt;/span&gt;&lt;span class=&quot;md-plain&quot; style=&quot;font-family: &amp;quot;open sans&amp;quot;, &amp;quot;clear sans&amp;quot;, &amp;quot;helvetica neue&amp;quot;, helvetica, arial, sans-serif; box-sizing: border-box; font-size: 20px;&quot;&gt;&amp;nbsp;&lt;/span&gt;&lt;br style=&quot;font-size: 20px;&quot;&gt;&lt;/div&gt;" style="shape=partialRectangle;html=1;whiteSpace=wrap;connectable=0;overflow=hidden;fillColor=none;top=0;left=0;bottom=0;right=0;strokeColor=#788AA3;labelBackgroundColor=none;fontSize=20;sketch=1;fontStyle=0;fillStyle=auto;labelBorderColor=none;" parent="tLYgwjl-dfper2AhRyFg-19" vertex="1">
          <mxGeometry width="430" height="53" as="geometry" />
        </mxCell>
        <mxCell id="tLYgwjl-dfper2AhRyFg-21" value="&lt;span class=&quot;md-plain&quot; style=&quot;font-family: &amp;quot;open sans&amp;quot;, &amp;quot;clear sans&amp;quot;, &amp;quot;helvetica neue&amp;quot;, helvetica, arial, sans-serif; box-sizing: border-box; font-size: 20px;&quot;&gt;&amp;nbsp;&lt;/span&gt;&lt;span class=&quot;md-link md-pair-s&quot; spellcheck=&quot;false&quot; style=&quot;font-family: &amp;quot;open sans&amp;quot;, &amp;quot;clear sans&amp;quot;, &amp;quot;helvetica neue&amp;quot;, helvetica, arial, sans-serif; box-sizing: border-box; word-break: break-all; font-size: 20px;&quot;&gt;&lt;a href=&quot;https://www.xiaobai.com/server.php&quot; style=&quot;box-sizing: border-box; cursor: pointer; font-size: 20px;&quot;&gt;https://www.xiaobai.com/server.php&lt;/a&gt;&lt;/span&gt;" style="shape=partialRectangle;html=1;whiteSpace=wrap;connectable=0;overflow=hidden;fillColor=none;top=0;left=0;bottom=0;right=0;strokeColor=#788AA3;labelBackgroundColor=none;fontSize=20;sketch=1;fontStyle=0;fillStyle=auto;labelBorderColor=none;" parent="tLYgwjl-dfper2AhRyFg-19" vertex="1">
          <mxGeometry x="430" width="490" height="53" as="geometry" />
        </mxCell>
        <mxCell id="e5mrfm4xOePhf9OYJ_Ce-10" value="&lt;span style=&quot;font-family: &amp;quot;open sans&amp;quot;, &amp;quot;clear sans&amp;quot;, &amp;quot;helvetica neue&amp;quot;, helvetica, arial, sans-serif; font-size: 20px;&quot;&gt;协议不同:http/https，&lt;/span&gt;&lt;span style=&quot;font-family: &amp;quot;open sans&amp;quot;, &amp;quot;clear sans&amp;quot;, &amp;quot;helvetica neue&amp;quot;, helvetica, arial, sans-serif; font-size: 20px;&quot;&gt;非同源&lt;/span&gt;" style="shape=partialRectangle;html=1;whiteSpace=wrap;connectable=0;overflow=hidden;fillColor=none;top=0;left=0;bottom=0;right=0;strokeColor=#788AA3;labelBackgroundColor=none;fontSize=20;sketch=1;fontStyle=0;fillStyle=auto;labelBorderColor=none;" parent="tLYgwjl-dfper2AhRyFg-19" vertex="1">
          <mxGeometry x="920" width="440" height="53" as="geometry" />
        </mxCell>
      </root>
    </mxGraphModel>
  </diagram>
</mxfile>
